<svg xmlns="http://www.w3.org/2000/svg" width="13.021" height="15.798" viewBox="0 0 13.021 15.798">
    <g>
        <g>
            <g>
                <g>
                    <g>
                        <path d="M14.9 0c-3.6 0-6.51 1.062-6.51 2.373V4.32c0 1.31 2.91 2.372 6.51 2.372s6.5-1.062 6.5-2.372V2.373C21.4 1.062 18.49 0 14.9 0z" transform="translate(-8.358) translate(8.358) translate(.005) translate(-8.39)"/>
                    </g>
                </g>
                <g>
                    <g>
                        <path d="M14.871 36.085c-3.431 0-6.26-.969-6.507-2.2-.012.059 0 3.215 0 3.215 0 1.311 2.913 2.373 6.507 2.373s6.507-1.062 6.507-2.373c0 0 .007-3.157 0-3.215-.253 1.232-3.078 2.2-6.507 2.2z" transform="translate(-8.358) translate(8.358) translate(0 5.629) translate(-8.358 -33.888)"/>
                    </g>
                </g>
                <path d="M21.394 61.464c-.247 1.228-3.07 2.2-6.5 2.2s-6.26-.969-6.508-2.2v3.215c0 1.311 2.913 2.372 6.507 2.372S21.4 65.99 21.4 64.679z" transform="translate(-8.358) translate(8.358) translate(-8.381 -51.254)"/>
            </g>
        </g>
    </g>
</svg>
