<svg xmlns="http://www.w3.org/2000/svg" width="16.162" height="16.162" viewBox="0 0 16.162 16.162">
    <g>
        <g>
            <path d="M3.717 11.656V0h-.776A2.076 2.076 0 0 0 .867 2.074v10.24a2.7 2.7 0 0 1 1.768-.659h1.082z" transform="translate(-.84)"/>
            <g>
                <path d="M129.844 8.048c.1 0 .2 0 .3.01V0H121.1v11.656h4.317a4.523 4.523 0 0 1 4.427-3.608zm-5.871-5.265h3.164v.945h-3.164zM122.9 4.835h5.3v.945h-5.3z" transform="translate(-117.281)"/>
                <path d="M8.665 400.505H2.423v-.945h5.825a4.5 4.5 0 0 1-.2-1.323H1.8a1.8 1.8 0 1 0 0 3.591h8.041a4.549 4.549 0 0 1-1.175-1.323z" transform="translate(0 -385.666)"/>
            </g>
        </g>
        <g>
            <path d="M287.548 283.95a3.6 3.6 0 1 0 3.6 3.6 3.6 3.6 0 0 0-3.6-3.6zm0 1.445a.474.474 0 1 1-.473.474.482.482 0 0 1 .473-.474zm.475 4h-.947v-2.424h.947z" transform="translate(8.963 8.963) translate(-283.949 -283.95)"/>
        </g>
    </g>
</svg>
